<svg xmlns="http://www.w3.org/2000/svg" width="187" height="55" fill="none"><rect width="186.154" height="55" x=".077" fill="#fff" rx="4.712"/><path fill="#151917" fill-rule="evenodd" d="M71.53 42.24h3.128L67.81 23.358h-3.168L57.79 42.24h3.024l1.749-5.012h7.23zm-5.456-15.454h.223l2.748 7.982h-5.732zm16.88.968c-1.945 0-3.628.969-4.496 2.591h-.21V27.99h-2.721V46.86h2.826V40.08h.224c.749 1.504 2.366 2.394 4.404 2.394 3.615 0 5.915-2.84 5.915-7.367s-2.3-7.353-5.942-7.353m-.802 12.196c-2.367 0-3.852-1.858-3.852-4.829 0-2.983 1.486-4.841 3.865-4.841 2.392 0 3.825 1.819 3.825 4.828 0 3.023-1.432 4.842-3.838 4.842m15.46-12.196c-1.945 0-3.628.969-4.495 2.591h-.21V27.99h-2.722V46.86h2.826V40.08h.224c.75 1.504 2.366 2.394 4.404 2.394 3.615 0 5.916-2.84 5.916-7.367s-2.301-7.353-5.942-7.353m-.801 12.196c-2.367 0-3.852-1.858-3.852-4.829 0-2.983 1.486-4.841 3.865-4.841 2.392 0 3.825 1.819 3.825 4.828 0 3.023-1.433 4.842-3.838 4.842m12.727-2.787c.21 3.376 3.037 5.535 7.244 5.535 4.496 0 7.309-2.264 7.309-5.876 0-2.84-1.604-4.41-5.495-5.312l-2.09-.51c-2.472-.576-3.471-1.348-3.471-2.696 0-1.701 1.551-2.813 3.878-2.813 2.209 0 3.734 1.086 4.01 2.826h2.865c-.17-3.18-2.984-5.417-6.836-5.417-4.141 0-6.901 2.237-6.901 5.6 0 2.774 1.564 4.423 4.995 5.221l2.445.59c2.511.588 3.616 1.452 3.616 2.89 0 1.676-1.736 2.893-4.102 2.893-2.537 0-4.299-1.139-4.548-2.931zm16.985-12.627v3.52h-2.353v2.368h2.353v8.047c0 2.748 1.249 3.847 4.391 3.847.552 0 1.065-.065 1.512-.144v-2.342c-.394.04-.618.065-1.052.065-1.406 0-2.024-.654-2.024-2.146v-7.327h3.207v-2.369h-3.207v-3.52zm13.041 15.48c-2.458 0-3.838-1.794-3.838-4.908 0-3.088 1.38-4.894 3.838-4.894 2.446 0 3.839 1.806 3.839 4.894 0 3.101-1.393 4.907-3.839 4.907m0 2.499c4.181 0 6.744-2.788 6.744-7.407 0-4.592-2.576-7.393-6.744-7.393-4.18 0-6.757 2.8-6.757 7.393 0 4.62 2.564 7.407 6.757 7.407m8.034-.275h2.826v-8.414c0-2.002 1.512-3.35 3.642-3.35.473 0 1.341.092 1.564.17v-2.774c-.302-.078-.841-.117-1.249-.117-1.866 0-3.444 1.02-3.851 2.42h-.211V27.99h-2.721zm14.396-12.13c2.09 0 3.457 1.453 3.523 3.69h-7.231c.158-2.224 1.617-3.69 3.708-3.69m3.51 8.283c-.526 1.112-1.696 1.727-3.405 1.727-2.261 0-3.72-1.583-3.812-4.083v-.157h10.109V34.9c0-4.475-2.406-7.184-6.389-7.184-4.036 0-6.599 2.892-6.599 7.446 0 4.553 2.511 7.353 6.612 7.353 3.274 0 5.561-1.57 6.205-4.121zM60.44 8.619v8.991h3.262c2.692 0 4.25-1.651 4.25-4.523 0-2.83-1.57-4.468-4.25-4.468zm1.403 1.27h1.702c1.872 0 2.98 1.185 2.98 3.216 0 2.063-1.09 3.234-2.98 3.234h-1.702zm11.044 6.662c-1.171 0-1.828-.854-1.828-2.337 0-1.47.657-2.33 1.828-2.33 1.164 0 1.828.86 1.828 2.33 0 1.477-.664 2.337-1.828 2.337m0 1.19c1.99 0 3.21-1.328 3.21-3.527 0-2.187-1.226-3.52-3.21-3.52-1.991 0-3.218 1.333-3.218 3.52 0 2.2 1.22 3.527 3.218 3.527m13.76-6.917h-1.346l-1.214 5.178h-.107l-1.402-5.178h-1.29l-1.402 5.178h-.1l-1.22-5.178H77.2l1.878 6.786h1.383l1.403-4.998h.106l1.408 4.998h1.396zm1.71 6.786h1.346v-3.97c0-1.059.664-1.719 1.747-1.719 1.001 0 1.49.542 1.49 1.633v4.056h1.345v-4.393c0-1.614-.857-2.524-2.378-2.524-1.027 0-1.822.455-2.154 1.21h-.1v-1.079h-1.296zm8.203 0h1.345V8.176H96.56zm6.561-1.06c-1.17 0-1.828-.853-1.828-2.336 0-1.47.658-2.33 1.828-2.33 1.165 0 1.828.86 1.828 2.33 0 1.477-.663 2.337-1.828 2.337m0 1.19c1.991 0 3.212-1.326 3.212-3.526 0-2.187-1.227-3.52-3.212-3.52-1.991 0-3.218 1.333-3.218 3.52 0 2.2 1.221 3.527 3.218 3.527m7.376-1.146c-.733 0-1.265-.355-1.265-.966 0-.598.426-.916 1.365-.978l1.665-.106v.567c0 .841-.751 1.483-1.765 1.483m-.345 1.128c.896 0 1.641-.386 2.048-1.065h.106v.953h1.296v-4.636c0-1.433-.964-2.28-2.673-2.28-1.546 0-2.648.747-2.786 1.912h1.302c.15-.48.67-.754 1.421-.754.92 0 1.396.405 1.396 1.122v.586l-1.847.106c-1.621.1-2.535.803-2.535 2.025 0 1.24.958 2.031 2.272 2.031m8.177 0c.939 0 1.734-.442 2.141-1.184h.107v1.072h1.289V8.176h-1.346v3.726h-.1c-.369-.747-1.158-1.19-2.091-1.19-1.721 0-2.829 1.359-2.829 3.502 0 2.15 1.095 3.508 2.829 3.508m.382-5.808c1.127 0 1.834.891 1.834 2.306 0 1.42-.701 2.299-1.834 2.299-1.139 0-1.821-.866-1.821-2.305 0-1.427.688-2.3 1.821-2.3m12.196 4.637c-1.17 0-1.828-.854-1.828-2.337 0-1.47.658-2.33 1.828-2.33 1.165 0 1.828.86 1.828 2.33 0 1.477-.663 2.337-1.828 2.337m.001 1.19c1.991 0 3.212-1.328 3.212-3.527 0-2.187-1.227-3.52-3.212-3.52-1.99 0-3.217 1.333-3.217 3.52 0 2.2 1.22 3.527 3.217 3.527m5.147-.131h1.346v-3.97c0-1.059.664-1.719 1.747-1.719 1.001 0 1.489.542 1.489 1.633v4.056h1.346v-4.393c0-1.614-.857-2.524-2.378-2.524-1.027 0-1.822.455-2.154 1.21h-.1v-1.079h-1.296zm12.441-8.43v1.675h-1.12v1.128h1.12v3.832c0 1.309.595 1.832 2.091 1.832.263 0 .507-.031.72-.068v-1.116c-.188.019-.294.031-.501.031-.67 0-.964-.311-.964-1.021v-3.49h1.528v-1.128h-1.528V9.18zm4.79 8.43h1.346v-3.963c0-1.028.683-1.72 1.785-1.72 1.014 0 1.521.549 1.521 1.633v4.05h1.346v-4.38c0-1.614-.877-2.53-2.411-2.53-1.026 0-1.815.455-2.147 1.215h-.106V8.176h-1.334zm11.013-5.776c.996 0 1.647.691 1.678 1.757h-3.443c.075-1.06.77-1.757 1.765-1.757m1.672 3.944c-.251.53-.808.822-1.622.822-1.076 0-1.771-.754-1.815-1.944v-.074h4.814v-.468c0-2.13-1.146-3.42-3.043-3.42-1.921 0-3.142 1.376-3.142 3.545s1.196 3.502 3.149 3.502c1.558 0 2.648-.748 2.954-1.963zM41.53 27.762c-.04-4.564 3.755-6.784 3.929-6.888-2.15-3.12-5.482-3.546-6.653-3.58-2.798-.293-5.513 1.667-6.938 1.667-1.454 0-3.65-1.638-6.015-1.59-3.045.047-5.893 1.801-7.455 4.526-3.224 5.555-.82 13.719 2.27 18.21 1.544 2.2 3.35 4.654 5.713 4.567 2.311-.093 3.175-1.467 5.965-1.467 2.764 0 3.575 1.467 5.985 1.41 2.481-.036 4.043-2.207 5.534-4.427 1.786-2.518 2.503-5.003 2.531-5.13-.057-.02-4.817-1.828-4.865-7.298M36.978 14.34c1.244-1.548 2.095-3.653 1.858-5.79-1.8.08-4.05 1.239-5.346 2.753-1.147 1.334-2.171 3.52-1.906 5.576 2.021.15 4.097-1.015 5.394-2.539" clip-rule="evenodd"/></svg>