<svg xmlns="http://www.w3.org/2000/svg" width="187" height="55" fill="none"><rect width="186.154" height="55" fill="#fff" rx="5.78"/><path fill="#151917" fill-rule="evenodd" d="M103.154 13.774a4.507 4.507 0 1 1-9.013 0 4.507 4.507 0 1 1 9.013 0m-1.376 0a3.13 3.13 0 1 1-6.26.001 3.13 3.13 0 0 1 6.26 0M71.733 9.642h-5.008v8.39h5.007v-1.001h-3.63v-2.756h3.254v-1.002h-3.254v-2.63h3.63zM78.743 9.642H73.11v1.002h2.129v7.388h1.377v-7.388h2.127zM91.012 9.642h-5.634v1.002h2.13v7.388h1.377v-7.388h2.127z" clip-rule="evenodd"/><path fill="#151917" d="M82.748 9.642h1.378v8.39h-1.378z"/><path fill="#151917" fill-rule="evenodd" d="M104.281 9.642h1.6269999999999998l3.756 6.14v-6.14h1.377v8.39h-1.377l-4.005-6.546v6.546h-1.378zM61.565 13.42h3.77l-.037 1.194h-3.733z" clip-rule="evenodd"/><path fill="#151917" fill-rule="evenodd" d="M61.51 18.232c2.483.022 4.555-1.728 4.14-4.768v-.044h-1.1q.013.19.009.392c.002 2.171-1.25 3.19-3.012 3.19a3.19 3.19 0 1 1 0-6.38c.882 0 1.646.302 2.184.852l.863-.862c-.734-.775-1.808-1.22-3.085-1.22a4.42 4.42 0 0 0-4.424 4.42 4.424 4.424 0 0 0 4.424 4.42M142.3 24.67h-7.097v10.777h7.097s4.086-.696 4.086-5.389-4.086-5.389-4.086-5.389m-.901 2.606h-4.818v5.784h4.818s2.192 0 2.192-2.892-2.192-2.892-2.192-2.892" clip-rule="evenodd"/><path fill="#151917" d="M134.576 24.669h2.505v17.532h-2.505zM147.847 24.669h2.505v17.532h-2.505z"/><path fill="#151917" fill-rule="evenodd" d="M157.039 30.556c-3.502 0-4.669 2.406-4.669 2.406l2.086 1.233s.503-1.233 2.783-1.233c1.66 0 2.213 1.255 2.391 1.937v.514c-.727-.354-2.301-.91-4.548-.576-3.048.453-2.987 3.21-2.977 3.645l.001.042c0 .246.002 3.887 3.991 3.638 1.741-.109 2.844-.645 3.533-1.214v1.249h2.505v-7.64h-.001c-.007-1.025-.761-4.001-5.095-4.001m-2.577 8.048c.167-2.71 4.991-1.41 4.991-1.41s.064.286.064.897c-.428 1.922-5.223 3.224-5.055.513M168.083 38.563l-3.212-7.631h-2.503l4.464 10.606-2.336 5.548H167l6.774-16.094h-2.504zM123.676 30.555c4.197 0 5.295 4.474 5.295 4.474l-7.919 3.274s.512 1.81 2.893 1.823c1.864.009 2.916-1.653 2.916-1.653l2.009 1.36s-1.621 2.624-4.941 2.624c-4.08 0-5.877-3.57-5.877-5.887 0-2.233 1.426-6.015 5.624-6.015m-.241 2.31c1.528-.28 2.524 1.237 2.524 1.237l-5.349 2.184s-.407-2.83 2.825-3.42" clip-rule="evenodd"/><path fill="#151917" d="M114.296 24.669h2.65v17.495h-2.65z"/><path fill="#151917" fill-rule="evenodd" d="M110.057 32.027v-1.092l2.449.022v11.039c0 2.82-1.679 5.797-5.631 5.797s-5.228-3.502-5.228-3.502l2.249-.947s.686 2.16 3.096 2.16c2.745 0 3.066-2.499 3.066-3.354v-1.198s-.95 1.487-3.309 1.487c-2.558 0-5.597-2.192-5.597-5.93s2.862-5.874 5.626-5.952c2.215-.062 3.279 1.47 3.279 1.47m.134 4.515c0 2.018-1.447 3.654-3.233 3.654s-3.233-1.636-3.233-3.654c0-2.019 1.447-3.655 3.233-3.655s3.233 1.636 3.233 3.655M100.052 36.504c0 3.285-2.669 5.948-5.96 5.948a5.954 5.954 0 0 1-5.96-5.948 5.954 5.954 0 0 1 5.96-5.949c3.291 0 5.96 2.663 5.96 5.949m-2.649 0c0 1.997-1.5 3.616-3.35 3.616s-3.35-1.619-3.35-3.616 1.5-3.615 3.35-3.615 3.35 1.618 3.35 3.615M87.157 36.504a5.954 5.954 0 0 1-5.96 5.948 5.954 5.954 0 0 1-5.96-5.948 5.954 5.954 0 0 1 5.96-5.949 5.954 5.954 0 0 1 5.96 5.949m-2.648 0c0 1.997-1.5 3.616-3.35 3.616s-3.35-1.619-3.35-3.616 1.5-3.615 3.35-3.615 3.35 1.618 3.35 3.615M65.808 32.441h7.869l-.078 2.489h-7.79z" clip-rule="evenodd"/><path fill="#151917" fill-rule="evenodd" d="M65.691 42.472c5.184.047 9.508-3.602 8.643-9.938v-.093h-2.297q.028.397.019.817c.005 4.525-2.607 6.648-6.286 6.648s-6.66-2.977-6.66-6.648c0-3.672 2.982-6.648 6.66-6.648 1.84 0 3.436.628 4.559 1.774l1.8-1.797c-1.532-1.614-3.773-2.543-6.438-2.543-5.098 0-9.232 4.125-9.232 9.214s4.134 9.207 9.232 9.214" clip-rule="evenodd"/><path fill="url(#a)" fill-rule="evenodd" d="M41.846 24.275c2.453 1.396 2.453 4.932 0 6.329L19.11 43.539c-2.427 1.38-5.441-.372-5.441-3.165v-25.87c0-2.792 3.014-4.545 5.441-3.164z" clip-rule="evenodd"/><mask id="b" width="31" height="35" x="13" y="10" maskUnits="userSpaceOnUse" style="mask-type:luminance"><path fill="#fff" fill-rule="evenodd" d="M41.846 24.275c2.453 1.396 2.453 4.932 0 6.329L19.11 43.539c-2.427 1.38-5.441-.372-5.441-3.165v-25.87c0-2.792 3.014-4.545 5.441-3.164z" clip-rule="evenodd"/></mask><g fill-rule="evenodd" clip-rule="evenodd" mask="url(#b)"><path fill="url(#c)" d="m13.645 9.756 17.5 17.4-17.726 18.086z"/><path fill="url(#d)" d="M10.047 6.174 31.143 27.16l6.272-5.986z"/><path fill="url(#e)" d="m31.145 27.156 9.602 9.682-28.685 9.681z"/></g><defs><linearGradient id="a" x1="45.395" x2="33.05" y1="20.552" y2="20.552" gradientUnits="userSpaceOnUse"><stop stop-color="#FBDA09"/><stop offset="1" stop-color="#FFBC00"/></linearGradient><linearGradient id="c" x1="15.138" x2="28.131" y1="42.803" y2="40.987" gradientUnits="userSpaceOnUse"><stop stop-color="#01E2FF"/><stop offset="1" stop-color="#01C4FF"/></linearGradient><linearGradient id="d" x1="6.905" x2="19.784" y1="17.06" y2="33.85" gradientUnits="userSpaceOnUse"><stop stop-color="#28D781"/><stop offset="1" stop-color="#02F076"/></linearGradient><linearGradient id="e" x1="22.851" x2="11.845" y1="24.298" y2="42.976" gradientUnits="userSpaceOnUse"><stop stop-color="#F2414E"/><stop offset="1" stop-color="#E02554"/></linearGradient></defs></svg>