<svg  width="452" height="205" fill="none" xmlns="http://www.w3.org/2000/svg">
    <g clip-path="url(#a)">
        <path fill="#F1F2F4" d="M0 0h452v205H0z"/>
        <path d="M229.723 219.84c8.666 56.476 6.225 112.678-5.827 169.429h-20.718c2.472-36.827 4.364-80.58-1.434-109.597l-39.542 110.055h-22.64l37.316-156.706 12.815-25.142 30.053-3.63 9.977 15.591Z"
              fill="#102048"/>
        <path d="m257.336 99.35 5.584-16.72 15.072 3.51c1.129 5.583-5.644 14.095-10.679 20.442l-9.977-7.231ZM206.478 159l-17.36.214-1.709-22.761-.214-2.716 17.453-.153.61 8.635 1.22 16.781Z"
              fill="#FFBEB8"/>
        <path d="M205.166 140.663c-5.675 4.058-13.119 1.525-17.757-4.18l-.214-2.716 17.453-.152.518 7.048Z"
              fill="#F4897D"/>
        <path d="M201.106 138.741c-8.817 2.014-18.642-3.631-22.517-11.137l-.519-13.486 4.943-6.987 20.992 1.801c-.092.03-.092.305 0 .823.244 1.312 1.037 4.089 1.8 7.445 1.77 8.177 3.234 19.741-4.699 21.541Z"
              fill="#FFBEB8"/>
        <path d="M186.343 150.396s12.967 10.374 24.226-4.394l21.358 70.97c-13.09 9.245-29.627 12.448-49.489 9.855l3.905-76.431Z"
              fill="#fff"/>
        <path opacity=".3"
              d="M189.117 159.214c1.8.641 3.631 1.037 5.462 1.251 1.83.183 3.661.153 5.461-.214 1.77-.335 3.54-.915 5.157-1.8.854-.366 1.586-.946 2.38-1.403.793-.488 1.495-1.129 2.288-1.678-.58.732-1.221 1.495-1.892 2.166-.732.61-1.434 1.312-2.288 1.8-1.587 1.129-3.509 1.8-5.431 2.197-3.845.702-7.994-.153-11.137-2.319Z"
              fill="#1F3C88"/>
        <path d="M256.758 96.269c-11.716 19.802-23.158 37.193-33.471 45.462-1.525 1.22-3.478 1.769-5.461 1.678-3.875-.214-7.903.275-12.357 1.342.946 35.516 4.302 68.407 16.384 88.575 7.262-2.106 16.11-5.462 20.992-9.581-3.966-13.486-8.665-32.83-12.174-49.733l38.719-69.169-12.632-8.574Z"
              fill="#375464"/>
        <path d="M181.552 125.011c1.648-2.106 2.38-5.675.915-12.815 4.852 5.492 12.083 6.773 22.67 2.075 0 0 6.896-2.685 5.309-9.703-1.434-6.346-6.743-9.702-10.892-4.546-9.398-2.746-18.643-3.234-22.792 5.309 0 0-13.212 6.865-1.953 18.002l6.743 1.678Z"
              fill="#102048"/>
        <path d="m287.876 94.529-21.572 13.089-.976-7.597 16.293-9.886 6.255 4.394Z"
              fill="#6F3428"/>
        <path d="m276.22 93.4-5.523 3.356-13.15-18.673 8.207-4.973L276.22 93.4Z" fill="#BB9132"/>
        <path d="m266.858 72.44-10.404 6.315c-2.319 1.404-5.34.915-7.079-1.19l-17.422-21.053 26.484-16.049 10.618 25.172a5.453 5.453 0 0 1-2.197 6.804Z"
              fill="#FBC343"/>
        <path d="m265.578 59.166-1.434-.61c3.997-9.61 3.295-17.452.366-19.16-1.526-.886-3.631.152-5.797 2.898l-1.221-.977c3.845-4.85 6.743-3.905 7.811-3.264 3.57 2.105 4.668 10.587.275 21.114Zm-20.719 12.571c-11.381-1.007-18.368-5.858-18.581-10.008-.061-1.25.457-4.271 6.529-5.4l.275 1.525c-3.418.64-5.34 2.044-5.248 3.814.183 3.387 6.773 7.628 17.147 8.543l-.122 1.526Z"
              fill="#FBC343"/>
        <path opacity=".6"
              d="M254.497 54.07c-.915-1.586-.854-3.325.092-3.874.976-.55 2.502.275 3.417 1.861.915 1.587.854 3.326-.092 3.875-.945.55-2.502-.275-3.417-1.861Z"
              fill="#fff"/>
        <path d="M277.964 85.773c.366 2.685-1.312 5.095-4.912 5.095-2.258 0-5.401-3.081-6.041-6.743-.55-3.02.61-5.004 2.746-5.858 2.166-.885 7.505 2.44 8.207 7.506Z"
              fill="#FFBEB8"/>
        <path d="m209.257 36.788-.734 2.328 18.917 5.96.733-2.329-18.916-5.96ZM249.746 12l-3.449 19.53 2.404.425 3.449-19.53-2.404-.425Zm-23.831 5.196-2.056 1.316 10.692 16.703 2.056-1.316-10.692-16.703Z"
              fill="#FBC343"/>
        <path d="m175.475 194.698-3.112 46.896c17.361-.763 29.016-6.468 29.016-6.468 1.495-27.979-2.075-59.314-13.15-87.476-28.132 10.465-36.065 45.096-40.245 96.568l16.476 1.922 11.015-51.442Z"
              fill="#375464"/>
        <path d="M181.82 129.679c-5.279 1.891-8.666 1.464-8.971-3.601-.152-2.898 2.838-5.217 5.462-3.997 1.129.519 2.197 1.526 3.234 2.929l.275 4.669Z"
              fill="#FFBEB8"/>
        <path d="M227.134 157.962c.702 2.228 1.312 4.486 1.892 6.713.61 2.258 1.129 4.516 1.678 6.773a247.049 247.049 0 0 1 1.465 6.835c.427 2.288.885 4.577 1.19 6.895l-.58.122c-.732-2.227-1.312-4.454-1.922-6.712a274.368 274.368 0 0 1-1.648-6.773 169.019 169.019 0 0 1-1.434-6.835c-.458-2.288-.885-4.577-1.22-6.865l.579-.153Zm-50.836 20.962c.092 2.257.061 4.515.031 6.743-.031 2.257-.122 4.485-.214 6.743a165.862 165.862 0 0 1-.427 6.743c-.183 2.227-.397 4.485-.702 6.712l-.61-.03c-.091-2.258-.091-4.516-.061-6.743.031-2.258.122-4.486.244-6.743.122-2.258.244-4.486.427-6.743.183-2.228.397-4.486.672-6.713l.64.031Z"
              fill="#000" fill-opacity=".6"/>
        <path d="M178.65 126.871c-.275-.366-.519-.762-.793-1.129-.275-.366-.519-.732-.855-.976-.305-.275-.579-.397-.854-.336-.336.031-.641.397-1.007.672l-.305-.183c.214-.458.427-.946 1.037-1.221.641-.274 1.343.031 1.709.397.763.763 1.19 1.678 1.373 2.654l-.305.122Z"
              fill="#102048"/>
        <path d="M266.799 86.597c.58-2.136.275-4.089-.64-4.333-.916-.244-2.35.763-2.929 2.898-.58 2.136-1.221 5.218.244 5.92 2.563 1.22 2.746-2.35 3.325-4.485Z"
              fill="#F9B384"/>
        <path d="M96.562 122.04c-3.766-.8-6.617-3.16-7.42-6.2 0-.06.841-.8.766-.73.64-.57 1.243-1.15 1.883-1.72.64-.57 1.243-1.15 1.883-1.69.126-.1.842-.61.804-.7.804 3.02 3.691 5.39 7.42 6.18-.238-.06-2.41 2.2-2.649 2.43-.276.29-2.285 2.49-2.687 2.43Z"
              fill="#30D6AF"/>
        <path d="M56.276 72.97c-4.695 2.2-9.379 4.41-14.074 6.61.44-.22-5.098-8.69-4.495-8.97 4.696-2.2 9.379-4.41 14.075-6.61-.478.22 5.085 8.68 4.494 8.97Z"
              fill="#FFBC1F"/>
        <path d="M48.968 165.304c2.624-2.42 5.248-4.88 7.885-7.3.163-.14 6.34 3.96 6.428 3.89-2.624 2.41-5.248 4.88-7.885 7.3-.138.16-6.378-3.94-6.428-3.89Z"
              fill="#3F67F2"/>
        <path d="M339.41 121.04c-.222 3.102 1.66 6.037 4.996 7.766.212.111 2.286-1.079 2.556-1.217.233-.114 2.311-1.347 2.532-1.241-3.335-1.729-5.218-4.664-4.996-7.766-.02.224-2.257 1.06-2.556 1.217-.37.15-2.508.882-2.532 1.241Z"
              fill="#FFBC1F"/>
        <path d="M365.95 54.017c-.646 2.08-1.262 4.129-1.908 6.21.041-.16 5.952.993 6.006.8.646-2.082 1.262-4.13 1.908-6.21-.013.14-5.924-1.013-6.006-.8Z"
              fill="#30D6AF"/>
        <path d="M393.8 162.417c-.477-2.36-.967-4.73-1.444-7.09.038.13 6.014-.48 6.052-.29.477 2.36.966 4.73 1.444 7.09 0-.13-6.015.48-6.052.29Zm-306.36-123c-.477-2.36-.966-4.73-1.444-7.09.038.13 6.015-.48 6.052-.29.477 2.36.967 4.73 1.444 7.09 0-.13-6.014.48-6.052.29Z"
              fill="#FA7697"/>
    </g>
    <defs>
        <clipPath id="a">
            <path fill="#fff" d="M0 0h452v205H0z"/>
        </clipPath>
    </defs>
</svg>