<svg width="160" height="32" viewBox="0 0 160 32" fill="none" xmlns="http://www.w3.org/2000/svg">
    <g clip-path="url(#clip0_54_1103)">
        <path d="M52.3041 6.41953C50.1447 6.41953 48.04 7.21154 46.3999 8.64271V6.41953H43.2565V30.4022H46.3999V22.5793C50.1857 25.8863 55.8985 25.4556 59.1513 21.6067C62.4041 17.7578 61.9804 11.9497 58.1946 8.64271C56.5682 7.21154 54.4772 6.41953 52.3041 6.41953ZM52.3041 21.5928C49.0513 21.5928 46.4136 18.9111 46.4136 15.6041C46.4136 12.2971 49.0513 9.61536 52.3041 9.61536C55.5569 9.61536 58.1946 12.2971 58.1946 15.6041C58.1946 18.9111 55.5569 21.5928 52.3041 21.5928Z" fill="#3AB67B"/>
        <path d="M36.1769 6.41953V8.64271C32.3911 5.33572 26.6782 5.76646 23.4255 9.61536C20.1727 13.4642 20.5964 19.2723 24.3822 22.5793C27.7716 25.5528 32.7875 25.5528 36.1906 22.5793V24.8025H39.334V6.41953H36.1769ZM30.2864 21.5928C27.0336 21.5928 24.3958 18.9111 24.3958 15.6041C24.3958 12.2971 27.0336 9.61536 30.2864 9.61536C33.5392 9.61536 36.1769 12.2971 36.1769 15.6041C36.1632 18.925 33.5392 21.5928 30.2864 21.5928Z" fill="#3AB67B"/>
        <path d="M72.7502 6.41953C67.7617 6.41953 63.7025 10.5324 63.7025 15.618C63.7025 20.6896 67.748 24.8164 72.7502 24.8164C77.7387 24.8164 81.7978 20.7035 81.7978 15.618C81.7978 10.5324 77.7523 6.41953 72.7502 6.41953ZM72.7502 21.5928C69.4974 21.5928 66.8596 18.9111 66.8596 15.6041C66.8596 12.2971 69.4974 9.61536 72.7502 9.61536C76.0029 9.61536 78.6407 12.2971 78.6407 15.6041C78.6407 18.9111 76.0029 21.5928 72.7502 21.5928Z" fill="#3AB67B"/>
        <path d="M18.0953 15.6179C18.0953 15.4512 18.0953 15.2844 18.0816 15.1177V6.41949H14.9382V8.62878C11.1524 5.32179 5.43951 5.76643 2.18674 9.61532C-1.06604 13.4642 -0.628692 19.2723 3.1571 22.5793C6.54655 25.5389 11.5624 25.5389 14.9518 22.5654V23.413C14.9518 25.1498 14.4872 26.4837 13.5305 27.4981C12.5601 28.5263 11.2617 29.0265 9.58066 29.0265C6.97023 29.0265 5.17984 27.901 4.14114 25.6084H0.79269C1.38038 27.6231 2.50108 29.221 4.1138 30.3465C5.67186 31.4442 7.51692 32 9.62166 32C12.5738 32 14.8972 30.9023 16.5099 28.7347C17.1796 27.8177 17.6443 26.7616 17.8629 25.6362C17.9586 25.1082 18.0269 24.5662 18.0679 24.0243C18.0816 23.8159 18.0953 23.5797 18.0953 22.4125V16.1181C18.0816 15.9514 18.0953 15.7847 18.0953 15.6179ZM9.04764 21.5927C5.79486 21.5927 3.1571 18.911 3.1571 15.604C3.1571 12.297 5.79486 9.61532 9.04764 9.61532C12.3004 9.61532 14.9382 12.297 14.9382 15.604C14.9382 18.9249 12.3004 21.5927 9.04764 21.5927Z" fill="#3AB67B"/>
        <path d="M109.036 6.41953L105.319 19.7031L100.973 6.41953H97.6517L93.3055 19.7031L89.5881 6.41953H86.2943L91.4468 24.8025H94.9729L99.3054 11.519L103.652 24.8025H107.164L112.33 6.41953H109.036Z" fill="#28526E"/>
        <path d="M121.665 6.41953C116.676 6.41953 112.617 10.5324 112.617 15.618C112.617 20.6896 116.663 24.8164 121.665 24.8164C126.653 24.8164 130.712 20.7035 130.712 15.618C130.712 10.5324 126.667 6.41953 121.665 6.41953ZM121.665 21.5928C118.412 21.5928 115.774 18.9111 115.774 15.6041C115.774 12.2971 118.412 9.61536 121.665 9.61536C124.918 9.61536 127.555 12.2971 127.555 15.6041C127.555 18.9111 124.918 21.5928 121.665 21.5928Z" fill="#28526E"/>
        <path d="M159.605 6.41945H155.067L147.359 14.0339V0H144.202V24.8024H147.359V18.508L149.532 16.3543L155.532 24.8024H159.427L151.828 14.1033L159.605 6.41945Z" fill="#28526E"/>
        <path d="M136.357 10.2267V6.41953H133.2V24.8164H136.357V16.938V16.1599C136.357 12.6722 137.546 9.90715 141.947 9.90715V6.41953C137.765 6.41953 136.357 9.71262 136.357 10.2267Z" fill="#28526E"/>
    </g>
    <defs>
        <clipPath id="clip0_54_1103">
            <rect width="160" height="32" fill="white"/>
        </clipPath>
    </defs>
</svg>